<svg xmlns="http://www.w3.org/2000/svg" viewBox="0 0 512 512" width="40" height="40">
  <path fill="#D14836" d="M502.3 190.8L327.4 338.3c-14.4 12.1-33.1 18.6-51.4 18.6s-37-6.6-51.4-18.6L9.7 190.8C3.6 185.6 0 178 0 169.7V96c0-17.7 14.3-32 32-32h448c17.7 0 32 14.3 32 32v73.7c0 8.3-3.6 15.9-9.7 21.1z"/>
  <path fill="#FFFFFF" d="M256 283.8c13.9 0 27.8-5.2 38.5-15.2L502.3 190.8c6.1-5.2 9.7-12.8 9.7-21.1V96c0-17.7-14.3-32-32-32H32c-17.7 0-32 14.3-32 32v73.7c0 8.3 3.6 15.9 9.7 21.1l207.8 77.8c10.7 10 24.6 15.2 38.5 15.2z"/>
  <path fill="#B71C1C" d="M256 319.2c-18.3 0-36.9-6.5-51.4-18.6L9.7 190.8C3.6 185.6 0 178 0 169.7v241.3c0 17.7 14.3 32 32 32h448c17.7 0 32-14.3 32-32V169.7c0-8.3-3.6-15.9-9.7-21.1L307.4 300.6c-14.5 12.1-33.1 18.6-51.4 18.6z"/>
</svg>
