<svg xmlns="http://www.w3.org/2000/svg" viewBox="0 0 448 512" width="40" height="40">
  <path fill="#E4405F" d="M224.1 141c-63.6 0-114.9 51.3-114.9 114.9s51.3 114.9 114.9 114.9 114.9-51.3 114.9-114.9S287.7 141 224.1 141zm0 189.6c-41.3 0-74.7-33.4-74.7-74.7s33.4-74.7 74.7-74.7 74.7 33.4 74.7 74.7-33.4 74.7-74.7 74.7zm146.4-194.3c0 14.9-12 26.9-26.9 26.9s-26.9-12-26.9-26.9 12-26.9 26.9-26.9 26.9 12 26.9 26.9zm76.1 27.2c-.1-55.2-44.9-100-100-100H101.7c-55.2 0-100 44.8-100 100v197.5c0 55.2 44.8 100 100 100h197.5c55.2 0 100-44.8 100-100V163.5zm-48 197.5c0 26.5-21.5 48-48 48H101.7c-26.5 0-48-21.5-48-48V163.5c0-26.5 21.5-48 48-48h197.5c26.5 0 48 21.5 48 48v197.5z"/>
</svg>
