<svg xmlns="http://www.w3.org/2000/svg" viewBox="0 0 512 512" width="40" height="40">
  <path fill="#1DA1F2" d="M459.4 151.7c.3 4.1.3 8.3.3 12.4 0 126.2-96 271.9-271.9 271.9-53.9 0-104-15.8-146-42.9 7.5.9 15.3 1.4 23.1 1.4 44.7 0 85.9-15.2 118.5-40.7-41.8-.9-77-28.4-89.1-66.5 5.8.9 11.8 1.5 17.9 1.5 8.7 0 17.2-1.2 25.2-3.5-43.8-8.8-76.7-47.6-76.7-94.2v-1.2c12.9 7.2 27.8 11.6 43.6 12.1-25.9-17.3-42.9-46.7-42.9-80.1 0-17.6 4.7-34.1 12.9-48.3 47.1 57.9 117.5 95.8 196.7 99.8-1.6-7.1-2.4-14.5-2.4-22 0-53.5 43.4-97 97-97 27.9 0 53.1 11.7 70.8 30.5 22-4.3 42.7-12.3 61.3-23.3-7.2 22.4-22.4 41.2-42.2 53.1 19.6-2.3 38.3-7.5 55.7-15.1-13 19.4-29.5 36.3-48.5 49.9z"/>
</svg>
